<svg viewBox="0 0 840 520" xmlns="http://www.w3.org/2000/svg" role="img" aria-label="Quantity words funnel down to bare de; des, du, de la do not survive">
  <rect x="40" y="60" width="200" height="54" rx="12" class="s-tile" stroke-width="2"/>
  <rect x="40" y="128" width="200" height="54" rx="12" class="s-tile" stroke-width="2"/>
  <rect x="40" y="196" width="200" height="54" rx="12" class="s-tile" stroke-width="2"/>
  <rect x="40" y="264" width="200" height="54" rx="12" class="s-tile" stroke-width="2"/>
  <text x="140" y="95" text-anchor="middle" font-size="27" font-weight="700" class="s-ink">beaucoup</text>
  <text x="140" y="163" text-anchor="middle" font-size="27" font-weight="700" class="s-ink">trop</text>
  <text x="140" y="231" text-anchor="middle" font-size="27" font-weight="700" class="s-ink">assez</text>
  <text x="140" y="299" text-anchor="middle" font-size="27" font-weight="700" class="s-ink">peu</text>
  <line x1="250" y1="87" x2="330" y2="150" class="s-stroke-teal" stroke-width="4" stroke-linecap="round"/>
  <line x1="250" y1="155" x2="330" y2="185" class="s-stroke-teal" stroke-width="4" stroke-linecap="round"/>
  <line x1="250" y1="223" x2="330" y2="220" class="s-stroke-teal" stroke-width="4" stroke-linecap="round"/>
  <line x1="250" y1="291" x2="330" y2="255" class="s-stroke-teal" stroke-width="4" stroke-linecap="round"/>
  <polygon points="340,120 560,120 490,320 410,320" class="s-stroke-teal" stroke-width="5" stroke-linejoin="round"/>
  <line x1="450" y1="330" x2="450" y2="368" class="s-stroke-teal" stroke-width="5" stroke-linecap="round"/>
  <polygon points="450,392 436,366 464,366" class="s-teal"/>
  <rect x="385" y="400" width="130" height="70" rx="14" class="s-teal"/>
  <text x="450" y="448" text-anchor="middle" font-size="40" font-weight="800" fill="#ffffff">de</text>
  <text x="700" y="105" text-anchor="middle" font-size="30" font-weight="700" class="s-dead" text-decoration="line-through">des</text>
  <text x="700" y="170" text-anchor="middle" font-size="30" font-weight="700" class="s-dead" text-decoration="line-through">du</text>
  <text x="700" y="235" text-anchor="middle" font-size="30" font-weight="700" class="s-dead" text-decoration="line-through">de la</text>
  <line x1="655" y1="255" x2="745" y2="255" class="s-stroke-coral" stroke-width="4" stroke-linecap="round"/>
  <text x="700" y="295" text-anchor="middle" font-size="18" font-weight="700" class="s-coral">none survive</text>
  <text x="420" y="505" text-anchor="middle" font-size="20" class="s-muted">quantity word first → the article dies → plain de</text>
</svg>
